<mxfile host="app.diagrams.net" modified="2024-06-13T22:44:57.505Z" agent="Mozilla/5.0 (Windows NT 10.0; Win64; x64) AppleWebKit/537.36 (KHTML, like Gecko) Chrome/126.0.0.0 Safari/537.36" version="24.5.4" etag="gjrXFxKFX8U3fY8E4u7n" type="github">
  <diagram name="PÃ¡gina-1" id="uKTjCesozaefU6hZSiGo">
    <mxGraphModel>
      <root>
        <mxCell id="0" />
        <mxCell id="1" parent="0" />
      </root>
    </mxGraphModel>
  </diagram>
</mxfile>
